<?xml version="1.0" encoding="UTF-8"?>
<svg width="90px" height="23px" viewBox="0 0 90 23" version="1.1" xmlns="http://www.w3.org/2000/svg" xmlns:xlink="http://www.w3.org/1999/xlink">
    <title>52700302-BEC0-4094-8B71-69783F42537F</title>
    <g id="Page-1" stroke="none" stroke-width="1" fill="none" fill-rule="evenodd">
        <g id="1-copy-2" transform="translate(-324.000000, -3924.000000)" fill="#FFFFFF" fill-rule="nonzero">
            <g id="Group-53" transform="translate(0.000000, 3461.000000)">
                <g id="app-store-copy" transform="translate(324.000000, 463.000000)">
                    <path d="M13.3631636,10.7359035 C13.3631636,9.20220299 14.1755829,7.75872017 15.5296152,6.94676108 C14.7171958,5.77393129 13.3631636,5.05218988 11.9188625,4.9619722 C10.3842926,4.78153685 8.93999154,5.86414896 8.12757219,5.86414896 C7.31515283,5.86414896 6.14165821,4.9619722 4.87789477,4.9619722 C3.16278724,5.05218988 1.62821735,5.95436664 0.815797994,7.39784946 C-0.899309533,10.3750328 0.364453908,14.8859166 2.07956143,17.3217939 C2.89198079,18.4946237 3.88493778,19.8478888 5.14870122,19.8478888 C6.41246466,19.7576711 6.86380875,19.0359297 8.39837864,19.0359297 C9.93294853,19.0359297 10.2940238,19.8478888 11.6480561,19.8478888 C13.0020883,19.8478888 13.8145077,18.675059 14.626927,17.4120115 C15.2588087,16.6000525 15.7101528,15.607658 15.9809593,14.6152636 C14.3561206,14.0739575 13.3631636,12.4500393 13.3631636,10.7359035 Z M10.8356367,3.4282717 C11.5577872,2.52609494 11.9188625,1.44348282 11.8285937,0.270653029 C10.7453679,0.360870705 9.66214208,0.902176764 8.93999154,1.80435353 C8.217841,2.61631261 7.85676574,3.69892473 7.94703455,4.87175452 C9.12052918,4.87175452 10.1134862,4.33044847 10.8356367,3.4282717 Z M29.1602066,16.8707055 L24.9175722,16.8707055 L23.9246152,19.9381065 L22.1192389,19.9381065 L26.1813356,8.75111461 L27.986712,8.75111461 L32.0488087,19.9381065 L30.2434324,19.9381065 L29.1602066,16.8707055 Z M25.3689163,15.5174403 L28.7991313,15.5174403 L27.0840238,10.5554681 L26.993755,10.5554681 L25.3689163,15.5174403 L25.3689163,15.5174403 Z M40.804884,15.878311 C40.804884,18.404406 39.4508518,20.0283242 37.374669,20.0283242 C36.2914432,20.1185418 35.2984862,19.4870181 34.8471421,18.5848413 L34.8471421,22.6446368 L33.1320346,22.6446368 L33.1320346,11.8185156 L34.7568733,11.8185156 L34.7568733,13.1717808 C35.2984862,12.269604 36.2914432,11.7282979 37.374669,11.7282979 C39.3605829,11.6380803 40.804884,13.3522161 40.804884,15.878311 Z M38.9995077,15.878311 C38.9995077,14.2543929 38.1870883,13.1717808 36.8330561,13.1717808 C35.5692926,13.1717808 34.6666044,14.2543929 34.6666044,15.878311 C34.6666044,17.5022292 35.5692926,18.5848413 36.8330561,18.5848413 C38.1870883,18.5848413 38.9995077,17.5022292 38.9995077,15.878311 Z M49.7414969,15.878311 C49.7414969,18.404406 48.3874647,20.0283242 46.3112819,20.0283242 C45.2280561,20.1185418 44.2350991,19.4870181 43.783755,18.5848413 L43.783755,22.6446368 L42.0686475,22.6446368 L42.0686475,11.8185156 L43.6934862,11.8185156 L43.6934862,13.1717808 C44.2350991,12.269604 45.2280561,11.7282979 46.3112819,11.7282979 C48.3874647,11.6380803 49.7414969,13.3522161 49.7414969,15.878311 Z M48.0263894,15.878311 C48.0263894,14.2543929 47.21397,13.1717808 45.8599378,13.1717808 C44.5961743,13.1717808 43.6934862,14.2543929 43.6934862,15.878311 C43.6934862,17.5022292 44.5961743,18.5848413 45.8599378,18.5848413 C47.21397,18.5848413 48.0263894,17.5022292 48.0263894,15.878311 Z M55.6992389,16.7804878 C55.7895077,17.8630999 56.8727335,18.5848413 58.4073034,18.5848413 C59.8516044,18.5848413 60.8445614,17.8630999 60.8445614,16.8707055 C60.8445614,15.9685287 60.2126797,15.5174403 58.7683786,15.1565696 L57.3240776,14.7956989 C55.2478948,14.3446105 54.3452066,13.3522161 54.3452066,11.8185156 C54.3452066,9.9239444 56.0603141,8.57067926 58.4073034,8.57067926 C60.7542926,8.57067926 62.3791313,9.9239444 62.4694001,11.8185156 L60.7542926,11.8185156 C60.6640238,10.7359035 59.7613356,10.0141621 58.4073034,10.0141621 C57.0532711,10.0141621 56.1505829,10.7359035 56.1505829,11.7282979 C56.1505829,12.540257 56.7824647,12.9913454 58.2267657,13.3522161 L59.4905292,13.6228691 C61.7472496,14.1641752 62.7402066,15.066352 62.7402066,16.6902701 C62.7402066,18.7652767 61.1153679,20.1185418 58.4073034,20.1185418 C55.8797765,20.1185418 54.2549378,18.8554944 54.164669,16.7804878 L55.6992389,16.7804878 L55.6992389,16.7804878 Z M66.1704216,9.83372672 L66.1704216,11.7282979 L67.7049915,11.7282979 L67.7049915,13.0815631 L66.1704216,13.0815631 L66.1704216,17.5924469 C66.1704216,18.3141883 66.4412281,18.5848413 67.1633786,18.5848413 L67.7049915,18.5848413 L67.7049915,19.9381065 C67.4341851,20.0283242 67.0731098,20.0283242 66.8023034,20.0283242 C65.1774647,20.0283242 64.5455829,19.3968004 64.5455829,17.8630999 L64.5455829,13.1717808 L63.3720883,13.1717808 L63.3720883,11.8185156 L64.5455829,11.8185156 L64.5455829,9.9239444 L66.1704216,9.9239444 L66.1704216,9.83372672 Z M68.6979485,15.878311 C68.6979485,13.3522161 70.2325184,11.7282979 72.5795077,11.7282979 C74.9264969,11.7282979 76.4610668,13.3522161 76.4610668,15.878311 C76.4610668,18.4946237 74.9264969,20.0283242 72.5795077,20.0283242 C70.1422496,20.0283242 68.6979485,18.404406 68.6979485,15.878311 Z M74.7459593,15.878311 C74.7459593,14.0739575 73.9335399,13.0815631 72.5795077,13.0815631 C71.2254754,13.0815631 70.4130561,14.0739575 70.4130561,15.878311 C70.4130561,17.6826646 71.2254754,18.675059 72.5795077,18.675059 C73.9335399,18.675059 74.7459593,17.5924469 74.7459593,15.878311 L74.7459593,15.878311 Z M77.8150991,11.7282979 L79.4399378,11.7282979 L79.4399378,13.1717808 C79.6204754,12.269604 80.5231636,11.6380803 81.4258518,11.7282979 C81.6063894,11.7282979 81.786927,11.7282979 81.9674647,11.8185156 L81.9674647,13.3522161 C81.6966582,13.2619984 81.4258518,13.2619984 81.2453141,13.2619984 C80.342626,13.2619984 79.5302066,13.9837398 79.5302066,14.8859166 L79.5302066,20.0283242 L77.8150991,20.0283242 L77.8150991,11.7282979 Z M89.7305829,17.5022292 C89.5500453,18.945712 88.1057442,20.0283242 86.2100991,20.0283242 C83.8631098,20.0283242 82.3285399,18.404406 82.3285399,15.878311 C82.3285399,13.3522161 83.772841,11.6380803 86.1198303,11.6380803 C88.3765507,11.6380803 89.8208518,13.1717808 89.8208518,15.6978757 L89.8208518,16.2391817 L84.0436475,16.2391817 L84.0436475,16.3293994 C83.9533786,17.5022292 84.765798,18.4946237 85.9392926,18.675059 L86.2100991,18.675059 C87.0225184,18.7652767 87.8349378,18.3141883 88.1057442,17.5022292 L89.7305829,17.5022292 L89.7305829,17.5022292 Z M84.0436475,15.066352 L88.1057442,15.066352 C88.196013,13.9837398 87.2933249,13.0815631 86.2100991,12.9913454 L86.0295614,12.9913454 C84.9463356,12.9913454 84.0436475,13.8935222 84.0436475,15.066352 Z M25.0981098,0.270653029 C26.4521421,0.180435353 27.5353679,1.17282979 27.6256367,2.43587726 L27.6256367,2.88696564 C27.6256367,4.60110149 26.7229485,5.59349593 25.0981098,5.59349593 L23.1121958,5.59349593 L23.1121958,0.180435353 L25.0981098,0.270653029 Z M24.014884,4.9619722 L25.007841,4.9619722 C25.9105292,5.05218988 26.7229485,4.33044847 26.8132173,3.33805403 L26.8132173,2.97718332 C26.9034862,2.07500656 26.2716044,1.17282979 25.3689163,1.08261212 L24.014884,1.08261212 L24.014884,4.9619722 Z M28.6185937,3.60870705 C28.5283249,2.52609494 29.3407442,1.62391817 30.3337012,1.5337005 C31.416927,1.44348282 32.3196152,2.25544191 32.409884,3.24783635 L32.409884,3.60870705 C32.5001528,4.69131917 31.7780023,5.59349593 30.6947765,5.68371361 C29.6115507,5.77393129 28.7088625,5.05218988 28.6185937,3.96957776 L28.6185937,3.60870705 Z M31.5974647,3.60870705 C31.5974647,2.70653029 31.2363894,2.25544191 30.5142389,2.25544191 C29.7920883,2.25544191 29.431013,2.79674797 29.431013,3.60870705 C29.431013,4.51088382 29.7920883,5.05218988 30.5142389,5.05218988 C31.2363894,5.05218988 31.5974647,4.51088382 31.5974647,3.60870705 Z M37.5552066,5.68371361 L36.7427872,5.68371361 L35.9303679,2.70653029 L35.8400991,2.70653029 L35.0276797,5.68371361 L34.2152604,5.68371361 L33.1320346,1.62391817 L33.9444539,1.62391817 L34.6666044,4.69131917 L34.7568733,4.69131917 L35.5692926,1.62391817 L36.381712,1.62391817 L37.1941313,4.69131917 L37.2844001,4.69131917 L38.0065507,1.62391817 L38.81897,1.62391817 L37.5552066,5.68371361 L37.5552066,5.68371361 Z M39.6313894,1.62391817 L40.4438087,1.62391817 L40.4438087,2.25544191 L40.5340776,2.25544191 C40.7146152,1.80435353 41.2562281,1.5337005 41.7075722,1.5337005 C42.4297227,1.44348282 43.0616044,1.98478888 43.1518733,2.79674797 L43.1518733,5.68371361 L42.3394539,5.68371361 L42.3394539,3.24783635 C42.3394539,2.61631261 42.0686475,2.25544191 41.4367657,2.25544191 C40.8951528,2.25544191 40.4438087,2.61631261 40.4438087,3.15761867 L40.4438087,5.68371361 L39.6313894,5.68371361 L39.6313894,1.62391817 Z M44.3253679,0 L45.1377872,0 L45.1377872,5.68371361 L44.3253679,5.68371361 L44.3253679,0 L44.3253679,0 Z M46.221013,3.60870705 C46.1307442,2.52610316 46.8528948,1.62391817 47.9361206,1.5337005 C49.0193464,1.44348282 49.9220346,2.16522423 50.0123034,3.24783635 L50.0123034,3.60870705 C50.1025722,4.69131917 49.3804216,5.59349593 48.2971958,5.68371361 C47.21397,5.77393129 46.3112819,5.05218988 46.221013,3.96957776 L46.221013,3.60870705 Z M49.2901528,3.60870705 C49.2901528,2.70653029 48.9290776,2.25544191 48.206927,2.25544191 C47.4847765,2.25544191 47.1237012,2.79674797 47.1237012,3.60870705 C47.1237012,4.51088382 47.4847765,5.05218988 48.206927,5.05218988 C48.8388087,5.05218988 49.2901528,4.51088382 49.2901528,3.60870705 Z M50.9149915,4.51088382 C50.9149915,3.78914241 51.4566044,3.33805403 52.4495614,3.33805403 L53.5327872,3.24783635 L53.5327872,2.88696564 C53.5327872,2.43587726 53.2619808,2.25544191 52.7203679,2.25544191 C52.2690238,2.25544191 51.9982173,2.43587726 51.9079485,2.70653029 L51.0955292,2.70653029 C51.185798,1.98478888 51.8176797,1.5337005 52.7203679,1.5337005 C53.7133249,1.5337005 54.3452066,2.07500656 54.3452066,2.88696564 L54.3452066,5.68371361 L53.5327872,5.68371361 L53.5327872,5.14240755 L53.4425184,5.14240755 C53.171712,5.59349593 52.7203679,5.77393129 52.178755,5.77393129 C51.5468733,5.86414896 50.9149915,5.32284291 50.8247227,4.69131917 C50.9149915,4.60110149 50.9149915,4.60110149 50.9149915,4.51088382 L50.9149915,4.51088382 Z M53.5327872,4.15001311 L53.5327872,3.78914241 L52.5398303,3.87936008 C51.9982173,3.87936008 51.7274109,4.15001311 51.7274109,4.42066614 C51.7274109,4.78153685 52.0884862,4.9619722 52.4495614,4.9619722 C52.9911743,5.14240755 53.4425184,4.78153685 53.5327872,4.15001311 C53.5327872,4.24023079 53.5327872,4.24023079 53.5327872,4.15001311 L53.5327872,4.15001311 Z M55.3381636,3.60870705 C55.3381636,2.34565959 55.9700453,1.5337005 57.0532711,1.5337005 C57.594884,1.5337005 58.0462281,1.80435353 58.3170346,2.25544191 L58.4073034,2.25544191 L58.4073034,1.77635684e-15 L59.2197227,1.77635684e-15 L59.2197227,5.68371361 L58.4073034,5.68371361 L58.4073034,5.05218988 L58.3170346,5.05218988 C58.0462281,5.50327826 57.594884,5.77393129 57.0532711,5.77393129 C56.0603141,5.77393129 55.3381636,4.9619722 55.3381636,3.60870705 L55.3381636,3.60870705 Z M56.2408518,3.60870705 C56.2408518,4.51088382 56.601927,4.9619722 57.3240776,4.9619722 C58.0462281,4.9619722 58.4073034,4.42066614 58.4073034,3.60870705 C58.4073034,2.79674797 57.9559593,2.25544191 57.3240776,2.25544191 C56.601927,2.25544191 56.2408518,2.79674797 56.2408518,3.60870705 Z M62.4694001,3.60870705 C62.3791313,2.52610316 63.1012819,1.62391817 64.1845077,1.5337005 C65.2677335,1.44348282 66.1704216,2.16522423 66.2606905,3.24783635 L66.2606905,3.60870705 C66.3509593,4.69131917 65.6288087,5.59349593 64.5455829,5.68371361 C63.4623571,5.77393129 62.559669,5.05218988 62.4694001,3.96957776 L62.4694001,3.60870705 Z M65.5385399,3.60870705 C65.5385399,2.70653029 65.1774647,2.25544191 64.4553141,2.25544191 C63.7331636,2.25544191 63.3720883,2.79674797 63.3720883,3.60870705 C63.3720883,4.51088382 63.7331636,5.05218988 64.4553141,5.05218988 C65.0871958,5.05218988 65.5385399,4.51088382 65.5385399,3.60870705 Z M67.4341851,1.62391817 L68.2466044,1.62391817 L68.2466044,2.25544191 L68.3368733,2.25544191 C68.5174109,1.80435353 69.0590238,1.5337005 69.5103679,1.5337005 C70.2325184,1.44348282 70.8644001,1.98478888 70.954669,2.79674797 L70.954669,5.68371361 L70.1422496,5.68371361 L70.1422496,3.24783635 C70.1422496,2.61631261 69.8714432,2.25544191 69.2395614,2.25544191 C68.6979485,2.25544191 68.2466044,2.61631261 68.2466044,3.15761867 L68.2466044,5.68371361 L67.4341851,5.68371361 L67.4341851,1.62391817 L67.4341851,1.62391817 Z M75.377841,0.631523735 L75.377841,1.62391817 L76.2805292,1.62391817 L76.2805292,2.34565959 L75.377841,2.34565959 L75.377841,4.42066614 C75.377841,4.87175452 75.5583786,5.05218988 75.9194539,5.05218988 L76.1902604,5.05218988 L76.1902604,5.68371361 L75.7389163,5.68371361 C74.8362281,5.68371361 74.4751528,5.41306058 74.4751528,4.60110149 L74.4751528,2.34565959 L73.8432711,2.34565959 L73.8432711,1.71413585 L74.4751528,1.71413585 L74.4751528,0.631523735 L75.377841,0.631523735 Z M77.363755,1.77635684e-15 L78.1761743,1.77635684e-15 L78.1761743,2.25544191 L78.2664432,2.25544191 C78.4469808,1.80435353 78.9885937,1.44348282 79.5302066,1.5337005 C80.2523571,1.5337005 80.8842389,2.07500656 80.9745077,2.79674797 L80.9745077,5.68371361 L80.1620883,5.68371361 L80.1620883,3.24783635 C80.1620883,2.61631261 79.8912819,2.25544191 79.2594001,2.25544191 C78.7177872,2.25544191 78.2664432,2.61631261 78.2664432,3.15761867 L78.2664432,5.68371361 L77.4540238,5.68371361 L77.4540238,1.77635684e-15 L77.363755,1.77635684e-15 Z M85.5782173,4.60110149 C85.3976797,5.32284291 84.5852604,5.86414896 83.8631098,5.77393129 C82.8701528,5.77393129 81.9674647,4.9619722 81.9674647,3.96957776 L81.9674647,3.69892473 C81.786927,2.70653029 82.5090776,1.71413585 83.5923034,1.62391817 L83.8631098,1.62391817 C85.0366044,1.62391817 85.6684862,2.43587726 85.6684862,3.69892473 L85.6684862,3.96957776 L82.779884,3.96957776 L82.779884,4.05979544 C82.6896152,4.69131917 83.1409593,5.14240755 83.772841,5.23262523 L83.8631098,5.23262523 C84.2241851,5.32284291 84.6755292,5.05218988 84.8560668,4.78153685 L85.5782173,4.78153685 L85.5782173,4.60110149 Z M82.6896152,3.24783635 L84.765798,3.24783635 C84.765798,2.70653029 84.4047227,2.25544191 83.8631098,2.16522423 L83.772841,2.16522423 C83.2312281,2.25544191 82.6896152,2.70653029 82.6896152,3.24783635 Z" id="Shape"></path>
                </g>
            </g>
        </g>
    </g>
</svg>