<?xml version="1.0" encoding="UTF-8"?>
<svg width="102px" height="25px" viewBox="0 0 102 25" version="1.1" xmlns="http://www.w3.org/2000/svg" xmlns:xlink="http://www.w3.org/1999/xlink">
    <title>8854BFBA-46A8-4310-A7B9-6D8441AE8618</title>
    <defs>
        <linearGradient x1="61.0260899%" y1="4.82%" x2="26.077862%" y2="71.948%" id="linearGradient-1">
            <stop stop-color="#00A0FF" offset="0%"></stop>
            <stop stop-color="#00A1FF" offset="0.7%"></stop>
            <stop stop-color="#00BEFF" offset="26%"></stop>
            <stop stop-color="#00D2FF" offset="51.2%"></stop>
            <stop stop-color="#00DFFF" offset="76%"></stop>
            <stop stop-color="#00E3FF" offset="100%"></stop>
        </linearGradient>
        <linearGradient x1="107.724138%" y1="50%" x2="-130.669951%" y2="50%" id="linearGradient-2">
            <stop stop-color="#FFE000" offset="0%"></stop>
            <stop stop-color="#FFBD00" offset="40.9%"></stop>
            <stop stop-color="#FFA500" offset="77.5%"></stop>
            <stop stop-color="#FF9C00" offset="100%"></stop>
        </linearGradient>
        <linearGradient x1="86.3233533%" y1="30.8002314%" x2="-49.9520958%" y2="135.854275%" id="linearGradient-3">
            <stop stop-color="#FF3A44" offset="0%"></stop>
            <stop stop-color="#C31162" offset="100%"></stop>
        </linearGradient>
        <linearGradient x1="-18.7964072%" y1="-11.4480178%" x2="42.0598802%" y2="35.2480448%" id="linearGradient-4">
            <stop stop-color="#32A071" offset="0%"></stop>
            <stop stop-color="#2DA771" offset="6.9%"></stop>
            <stop stop-color="#15CF74" offset="47.6%"></stop>
            <stop stop-color="#06E775" offset="80.1%"></stop>
            <stop stop-color="#00F076" offset="100%"></stop>
        </linearGradient>
    </defs>
    <g id="Page-1" stroke="none" stroke-width="1" fill="none" fill-rule="evenodd">
        <g id="1-copy-2" transform="translate(-324.000000, -3878.000000)" fill-rule="nonzero">
            <g id="Group-53" transform="translate(0.000000, 3461.000000)">
                <g id="google-play-copy" transform="translate(324.000000, 418.000000)">
                    <path d="M32.7055208,2.88414634 C32.7055208,3.58333333 32.530625,4.19512195 32.0933854,4.63211382 C31.5686979,5.15650407 30.9565625,5.41869919 30.1695312,5.41869919 C29.3825,5.41869919 28.7703646,5.15650407 28.2456771,4.63211382 C27.7209896,4.10772358 27.4586458,3.49593496 27.4586458,2.70934959 C27.4586458,1.92276423 27.7209896,1.31097561 28.2456771,0.786585366 C28.7703646,0.262195122 29.3825,0 30.1695312,0 C30.5193229,0 30.8691146,0.087398374 31.2189062,0.262195122 C31.5686979,0.43699187 31.8310417,0.611788618 32.0059375,0.87398374 L31.5686979,1.31097561 C31.2189062,0.87398374 30.7816667,0.699186992 30.1695312,0.699186992 C29.6448437,0.699186992 29.1201562,0.87398374 28.7703646,1.31097561 C28.333125,1.66056911 28.1582292,2.18495935 28.1582292,2.79674797 C28.1582292,3.40853659 28.333125,3.93292683 28.7703646,4.28252033 C29.2076042,4.63211382 29.6448437,4.89430894 30.1695312,4.89430894 C30.7816667,4.89430894 31.2189062,4.7195122 31.6561458,4.28252033 C31.9184896,4.0203252 32.0933854,3.67073171 32.0933854,3.23373984 L30.1695312,3.23373984 L30.1695312,2.53455285 L32.7055208,2.53455285 L32.7055208,2.88414634 L32.7055208,2.88414634 Z M36.728125,0.699186992 L34.3670312,0.699186992 L34.3670312,2.3597561 L36.5532292,2.3597561 L36.5532292,2.97154472 L34.3670312,2.97154472 L34.3670312,4.63211382 L36.728125,4.63211382 L36.728125,5.33130081 L33.6674479,5.33130081 L33.6674479,0.087398374 L36.728125,0.087398374 L36.728125,0.699186992 Z M39.6139062,5.33130081 L38.9143229,5.33130081 L38.9143229,0.699186992 L37.4277083,0.699186992 L37.4277083,0.087398374 L41.1005208,0.087398374 L41.1005208,0.699186992 L39.6139062,0.699186992 L39.6139062,5.33130081 Z M43.6365104,5.33130081 L43.6365104,0.087398374 L44.3360937,0.087398374 L44.3360937,5.33130081 L43.6365104,5.33130081 Z M47.3093229,5.33130081 L46.6097396,5.33130081 L46.6097396,0.699186992 L45.123125,0.699186992 L45.123125,0.087398374 L48.7084896,0.087398374 L48.7084896,0.699186992 L47.221875,0.699186992 L47.3093229,5.33130081 Z M55.616875,4.63211382 C55.0921875,5.15650407 54.4800521,5.41869919 53.6930208,5.41869919 C52.9059896,5.41869919 52.2938542,5.15650407 51.7691667,4.63211382 C51.2444792,4.10772358 50.9821354,3.49593496 50.9821354,2.70934959 C50.9821354,1.92276423 51.2444792,1.31097561 51.7691667,0.786585366 C52.2938542,0.262195122 52.9059896,0 53.6930208,0 C54.4800521,0 55.0921875,0.262195122 55.616875,0.786585366 C56.1415625,1.31097561 56.4039062,1.92276423 56.4039062,2.70934959 C56.4039062,3.49593496 56.1415625,4.10772358 55.616875,4.63211382 Z M52.2938542,4.19512195 C52.6436458,4.54471545 53.1683333,4.80691057 53.6930208,4.80691057 C54.2177083,4.80691057 54.7423958,4.63211382 55.0921875,4.19512195 C55.4419792,3.84552846 55.7043229,3.32113821 55.7043229,2.70934959 C55.7043229,2.09756098 55.5294271,1.57317073 55.0921875,1.22357724 C54.7423958,0.87398374 54.2177083,0.611788618 53.6930208,0.611788618 C53.1683333,0.611788618 52.6436458,0.786585366 52.2938542,1.22357724 C51.9440625,1.57317073 51.6817187,2.09756098 51.6817187,2.70934959 C51.6817187,3.32113821 51.8566146,3.84552846 52.2938542,4.19512195 Z M57.3658333,5.33130081 L57.3658333,0.087398374 L58.1528646,0.087398374 L60.6888542,4.19512195 L60.6888542,0.087398374 L61.3884375,0.087398374 L61.3884375,5.33130081 L60.6888542,5.33130081 L57.9779687,1.04878049 L57.9779687,5.33130081 L57.3658333,5.33130081 L57.3658333,5.33130081 Z" id="Shape" stroke="#FFFFFF" stroke-width="0.2" fill="#FFFFFF"></path>
                    <path d="M50.8072396,13.0223577 C48.7084896,13.0223577 47.0469792,14.5955285 47.0469792,16.7804878 C47.0469792,18.8780488 48.7084896,20.5386179 50.8072396,20.5386179 C52.9059896,20.5386179 54.5675,18.9654472 54.5675,16.7804878 C54.5675,14.5081301 52.9059896,13.0223577 50.8072396,13.0223577 Z M50.8072396,18.9654472 C49.6704167,18.9654472 48.7084896,18.004065 48.7084896,16.6930894 C48.7084896,15.3821138 49.6704167,14.4207317 50.8072396,14.4207317 C51.9440625,14.4207317 52.9059896,15.2947154 52.9059896,16.6930894 C52.9059896,18.004065 51.9440625,18.9654472 50.8072396,18.9654472 Z M42.6745833,13.0223577 C40.5758333,13.0223577 38.9143229,14.5955285 38.9143229,16.7804878 C38.9143229,18.8780488 40.5758333,20.5386179 42.6745833,20.5386179 C44.7733333,20.5386179 46.4348437,18.9654472 46.4348437,16.7804878 C46.4348437,14.5081301 44.7733333,13.0223577 42.6745833,13.0223577 Z M42.6745833,18.9654472 C41.5377604,18.9654472 40.5758333,18.004065 40.5758333,16.6930894 C40.5758333,15.3821138 41.5377604,14.4207317 42.6745833,14.4207317 C43.8114062,14.4207317 44.7733333,15.2947154 44.7733333,16.6930894 C44.7733333,18.004065 43.8114062,18.9654472 42.6745833,18.9654472 Z M32.9678646,14.1585366 L32.9678646,15.7317073 L36.728125,15.7317073 C36.6406771,16.6056911 36.2908854,17.304878 35.8536458,17.7418699 C35.3289583,18.2662602 34.4544792,18.8780488 32.9678646,18.8780488 C30.6067708,18.8780488 28.8578125,17.0426829 28.8578125,14.6829268 C28.8578125,12.3231707 30.6942187,10.4878049 32.9678646,10.4878049 C34.1921354,10.4878049 35.1540625,11.0121951 35.8536458,11.6239837 L36.9904687,10.4878049 C36.0285417,9.61382114 34.8042708,8.91463415 33.0553125,8.91463415 C29.9071875,8.91463415 27.1963021,11.5365854 27.1963021,14.6829268 C27.1963021,17.8292683 29.9071875,20.4512195 33.0553125,20.4512195 C34.8042708,20.4512195 36.0285417,19.9268293 37.0779167,18.7906504 C38.1272917,17.7418699 38.4770833,16.2560976 38.4770833,15.1199187 C38.4770833,14.7703252 38.4770833,14.4207317 38.3896354,14.1585366 L32.9678646,14.1585366 L32.9678646,14.1585366 Z M72.6692187,15.3821138 C72.3194271,14.5081301 71.4449479,13.0223577 69.5210937,13.0223577 C67.5972396,13.0223577 66.0231771,14.5081301 66.0231771,16.7804878 C66.0231771,18.8780488 67.5972396,20.5386179 69.6959896,20.5386179 C71.3575,20.5386179 72.406875,19.4898374 72.7566667,18.8780488 L71.5323958,18.004065 C71.0951562,18.6158537 70.5704687,19.0528455 69.6959896,19.0528455 C68.8215104,19.0528455 68.2968229,18.703252 67.8595833,17.9166667 L72.8441146,15.8191057 L72.6692187,15.3821138 L72.6692187,15.3821138 Z M67.5972396,16.6056911 C67.5972396,15.2073171 68.7340625,14.4207317 69.5210937,14.4207317 C70.1332292,14.4207317 70.7453646,14.7703252 70.9202604,15.2073171 L67.5972396,16.6056911 Z M63.4871875,20.1890244 L65.1486979,20.1890244 L65.1486979,9.26422764 L63.4871875,9.26422764 L63.4871875,20.1890244 Z M60.86375,13.8089431 C60.4265104,13.3719512 59.7269271,12.9349593 58.8524479,12.9349593 C57.0160417,12.9349593 55.2670833,14.5955285 55.2670833,16.6930894 C55.2670833,18.7906504 56.9285937,20.3638211 58.8524479,20.3638211 C59.7269271,20.3638211 60.4265104,19.9268293 60.7763021,19.4898374 L60.86375,19.4898374 L60.86375,20.0142276 C60.86375,21.4126016 60.0767187,22.199187 58.8524479,22.199187 C57.8905208,22.199187 57.1909375,21.5 57.0160417,20.8882114 L55.616875,21.5 C56.0541146,22.4613821 57.1034896,23.6849593 58.9398958,23.6849593 C60.86375,23.6849593 62.4378125,22.5487805 62.4378125,19.8394309 L62.4378125,13.1971545 L60.86375,13.1971545 L60.86375,13.8089431 L60.86375,13.8089431 Z M58.9398958,18.9654472 C57.8030729,18.9654472 56.8411458,18.004065 56.8411458,16.6930894 C56.8411458,15.3821138 57.8030729,14.4207317 58.9398958,14.4207317 C60.0767187,14.4207317 60.9511979,15.3821138 60.9511979,16.6930894 C60.9511979,18.004065 60.0767187,18.9654472 58.9398958,18.9654472 Z M80.2771875,9.26422764 L76.3420312,9.26422764 L76.3420312,20.1890244 L78.0035417,20.1890244 L78.0035417,16.0813008 L80.2771875,16.0813008 C82.1135937,16.0813008 83.8625521,14.7703252 83.8625521,12.6727642 C83.8625521,10.5752033 82.1135937,9.26422764 80.2771875,9.26422764 L80.2771875,9.26422764 Z M80.3646354,14.5081301 L78.0035417,14.5081301 L78.0035417,10.75 L80.3646354,10.75 C81.5889062,10.75 82.2884896,11.7987805 82.2884896,12.5853659 C82.2010417,13.546748 81.5014583,14.5081301 80.3646354,14.5081301 Z M90.4211458,12.9349593 C89.196875,12.9349593 87.9726042,13.4593496 87.5353646,14.5955285 L89.0219792,15.2073171 C89.3717708,14.5955285 89.8964583,14.4207317 90.5085937,14.4207317 C91.3830729,14.4207317 92.1701042,14.945122 92.2575521,15.8191057 L92.2575521,15.9065041 C91.9952083,15.7317073 91.295625,15.4695122 90.5960417,15.4695122 C89.0219792,15.4695122 87.4479167,16.3434959 87.4479167,17.9166667 C87.4479167,19.402439 88.7596354,20.3638211 90.1588021,20.3638211 C91.295625,20.3638211 91.8203125,19.8394309 92.2575521,19.3150407 L92.345,19.3150407 L92.345,20.1890244 L93.9190625,20.1890244 L93.9190625,15.9939024 C93.7441667,14.0711382 92.2575521,12.9349593 90.4211458,12.9349593 L90.4211458,12.9349593 Z M90.24625,18.9654472 C89.7215625,18.9654472 88.9345312,18.703252 88.9345312,18.004065 C88.9345312,17.1300813 89.8964583,16.8678862 90.6834896,16.8678862 C91.3830729,16.8678862 91.7328646,17.0426829 92.1701042,17.2174797 C91.9952083,18.2662602 91.1207292,18.9654472 90.24625,18.9654472 L90.24625,18.9654472 Z M99.4282812,13.1971545 L97.591875,17.9166667 L97.5044271,17.9166667 L95.5805729,13.1971545 L93.8316146,13.1971545 L96.7173958,19.8394309 L95.0558854,23.5101626 L96.7173958,23.5101626 L101.17724,13.1971545 L99.4282812,13.1971545 L99.4282812,13.1971545 Z M84.7370312,20.1890244 L86.3985417,20.1890244 L86.3985417,9.26422764 L84.7370312,9.26422764 L84.7370312,20.1890244 Z" id="Shape" fill="#FFFFFF"></path>
                    <g id="Group-47" transform="translate(0.000000, 0.237090)">
                        <path d="M0.349791667,0.287300626 C0.0874479167,0.549495748 0,0.986487618 0,1.51087786 L0,20.8259185 C0,21.3503088 0.174895833,21.7873006 0.437239583,22.0494957 L0.5246875,22.1368941 L11.3682292,11.2994957 L11.3682292,11.124699 L0.349791667,0.287300626 Z" id="Path" fill="url(#linearGradient-1)"></path>
                        <path d="M14.8661458,14.9702275 L11.2807812,11.3868941 L11.2807812,11.124699 L14.8661458,7.54136567 L14.9535937,7.62876404 L19.2385417,10.0759185 C20.4628125,10.7751055 20.4628125,11.9112844 19.2385417,12.6104714 L14.8661458,14.9702275 Z" id="Path" fill="url(#linearGradient-2)"></path>
                        <path d="M14.9535937,14.8828291 L11.2807812,11.2120974 L0.349791667,22.1368941 C0.78703125,22.573886 1.39916667,22.573886 2.18619792,22.2242925 L14.9535937,14.8828291" id="Path" fill="url(#linearGradient-3)"></path>
                        <path d="M14.9535937,7.54136567 L2.18619792,0.287300626 C1.39916667,-0.149691244 0.78703125,-0.0622928697 0.349791667,0.374699 L11.2807812,11.2120974 L14.9535937,7.54136567 L14.9535937,7.54136567 Z" id="Path" fill="url(#linearGradient-4)"></path>
                    </g>
                    <path d="M14.8661458,15.0325203 L2.18619792,22.199187 C1.48661458,22.6361789 0.874479167,22.5487805 0.437239583,22.199187 L0.349791667,22.2865854 L0.437239583,22.3739837 C0.874479167,22.7235772 1.48661458,22.8109756 2.18619792,22.3739837 L14.8661458,15.0325203 Z" id="Path" fill="#000000" opacity="0.2"></path>
                    <path d="M0.349791667,22.199187 C0.0874479167,21.9369919 -2.77555756e-17,21.5 -2.77555756e-17,20.9756098 L-2.77555756e-17,21.0630081 C-2.77555756e-17,21.5873984 0.174895833,22.0243902 0.437239583,22.2865854 L0.437239583,22.199187 L0.349791667,22.199187 Z M19.2385417,12.5853659 L14.8661458,15.0325203 L14.9535937,15.1199187 L19.2385417,12.6727642 C19.8506771,12.3231707 20.1130208,11.8861789 20.1130208,11.449187 C20.1130208,11.8861789 19.7632292,12.2357724 19.2385417,12.5853659 L19.2385417,12.5853659 Z" id="Shape" fill="#000000" opacity="0.12"></path>
                    <path d="M2.18619792,0.611788618 L19.2385417,10.3130081 C19.7632292,10.6626016 20.1130208,11.0121951 20.1130208,11.449187 C20.1130208,11.0121951 19.8506771,10.5752033 19.2385417,10.2256098 L2.18619792,0.611788618 C0.961927083,-0.174796748 0,0.349593496 0,1.74796748 L0,1.83536585 C0,0.524390244 0.961927083,-0.087398374 2.18619792,0.611788618 Z" id="Path" fill="#FFFFFF" opacity="0.25"></path>
                </g>
            </g>
        </g>
    </g>
</svg>