<?xml version="1.0" encoding="UTF-8"?>
<svg width="330px" height="58px" viewBox="0 0 330 58" version="1.1" xmlns="http://www.w3.org/2000/svg" xmlns:xlink="http://www.w3.org/1999/xlink">
    <title>icon-sprite-menu@1x</title>
    <g id="MWeb-/-Empty-&amp;-Error-States" stroke="none" stroke-width="1" fill="none" fill-rule="evenodd">
        <g id="[MVP][Full-W]Icons" transform="translate(-298.000000, -147.000000)">
            <g id="icon-sprite-menu" transform="translate(298.000000, 147.000000)">
                <g id="Home-/-Filled">
                    <rect id="Rectangle" x="0" y="0" width="24" height="24"></rect>
                    <path d="M10.9600721,4.35336353 C11.5734374,3.88221109 12.4266775,3.88221109 13.0400512,4.35336994 L13.0400512,4.35336994 L19.3325854,9.18709045 C19.7534047,9.51021965 20,10.0105345 20,10.5410171 L20,10.5410171 L20,17.7160617 C20,18.6589545 19.2357039,19.423191 18.2928706,19.423191 L18.2928706,19.423191 L15.6825415,19.423191 C14.7397082,19.423191 13.9754122,18.6589545 13.9754122,17.7160617 L13.9754122,17.7160617 L13.9754122,14.9830233 C13.9754122,13.8921511 13.0909608,13.0077259 12,13.0077259 C10.909141,13.0077259 10.0247027,13.8921642 10.0247027,14.9830233 L10.0247027,14.9830233 L10.0247027,17.7160617 C10.0247027,18.6589545 9.26040664,19.423191 8.31757339,19.423191 L8.31757339,19.423191 L5.70724422,19.423191 C4.76441311,19.423191 4,18.6589567 4,17.7160617 L4,17.7160617 L4,10.5410171 C4,10.0106237 4.24663232,9.51033918 4.66731275,9.18716873 L4.66731275,9.18716873 L10.9600721,4.35336353 Z" id="Combined-Shape" fill="#FFFFFF" fill-rule="nonzero"></path>
                </g>
                <g id="Home-/-Outline" transform="translate(0.000000, 34.000000)">
                    <rect id="Rectangle" x="0" y="0" width="24" height="24"></rect>
                    <path d="M10.6619269,4.45834704 L4.85839286,8.95256121 C4.31718146,9.37172887 4,10.0206309 4,10.7085851 L4,17.2056595 C4,18.4286009 4.9833547,19.42 6.19648846,19.42 L8.40262827,19.42 C9.61567869,19.42 10.5991167,18.428569 10.5991167,17.2056595 L10.5991167,14.7120506 C10.5991167,13.9320232 11.2262947,13.2997237 11.9999425,13.2997237 C12.7736934,13.2997237 13.4008833,13.9320112 13.4008833,14.7120506 L13.4008833,17.2056595 C13.4008833,18.4285747 14.3842121,19.42 15.5972568,19.42 L17.8035115,19.42 C19.0165619,19.42 20,18.428569 20,17.2056595 L20,10.7085851 C20,10.0206309 19.6828185,9.37172887 19.1416434,8.95258929 L13.3380382,4.45831994 C12.549011,3.84722217 11.450989,3.84722217 10.6619269,4.45834704 Z M12.4980979,5.56059337 L18.3017019,10.0548617 C18.5031472,10.2108809 18.6212344,10.4524683 18.6212344,10.7085851 L18.6212344,17.2056595 C18.6212344,17.6609089 18.2550907,18.0300285 17.8035115,18.0300285 L15.5972568,18.0300285 C15.1457158,18.0300285 14.7796488,17.6609474 14.7796488,17.2056595 L14.7796488,14.7120506 C14.7796488,13.1643511 13.5351646,11.9097522 11.9999425,11.9097522 C10.4648119,11.9097522 9.22035115,13.1643749 9.22035115,14.7120506 L9.22035115,17.2056595 C9.22035115,17.6609089 8.85420749,18.0300285 8.40262827,18.0300285 L6.19648846,18.0300285 C5.74484215,18.0300285 5.37876558,17.6609571 5.37876558,17.2056595 L5.37876558,10.7085851 C5.37876558,10.4524683 5.49685281,10.2108809 5.6982981,10.0548617 L11.5018671,5.56062047 C11.7956305,5.33310209 12.2043695,5.33310209 12.4980979,5.56059337 Z" id="Stroke-1" fill="#FFFFFF" fill-rule="nonzero" opacity="0.4"></path>
                </g>
                <g id="TV-/-Filled" transform="translate(34.000000, 0.000000)">
                    <rect id="Rectangle" x="0" y="0" width="24" height="24"></rect>
                    <path d="M15.4546376,4.23607908 C15.729823,4.52943383 15.7225275,4.98603082 15.4434686,5.27050743 L15.4208732,5.29260239 L13.6210687,6.98040755 L18.2615608,6.98118162 C19.4917253,6.98118162 20.4989098,7.9349846 20.5841657,9.14345287 L20.5900114,9.30975684 L20.5900114,17.6714248 C20.5900114,18.9015132 19.6362812,19.9088812 18.4278586,19.9941532 L18.2615608,20 L5.32857523,20 C4.09843782,20 3.09111449,19.046109 3.00584656,17.8377173 L3,17.6714248 L3,9.30975684 C3,8.07958699 3.95380807,7.07229329 5.16227191,6.98702799 L5.32857523,6.98118162 L9.84141505,6.98040755 L8.04224499,5.29260239 C7.74117037,5.01017529 7.72605358,4.53715369 8.00848068,4.23607908 C8.28366607,3.94272433 8.73979718,3.92085091 9.04151138,4.18117629 L9.06500401,4.20231478 L11.7316214,6.70373833 L14.3981142,4.20231478 C14.6991888,3.91988768 15.1722105,3.93500447 15.4546376,4.23607908 Z" id="Combined-Shape" fill="#FFFFFF" fill-rule="nonzero"></path>
                </g>
                <g id="TV-/-Outline" transform="translate(34.000000, 34.000000)">
                    <rect id="Rectangle" x="0" y="0" width="24" height="24"></rect>
                    <path d="M15.4546472,4.23607927 C15.7298329,4.52943424 15.7225374,4.98603159 15.4434783,5.27050841 L15.4208829,5.29260341 L13.6211522,6.98043098 L18.2615726,6.98117148 C19.4917434,6.98117148 20.4990379,7.93498028 20.5843032,9.14344508 L20.5901496,9.30974851 L20.5901496,17.671423 C20.5901496,18.95742 19.5476263,20 18.2615726,20 L18.2615726,20 L5.32870161,20 C4.04264232,20 3,18.9574145 3,17.671423 L3,17.671423 L3,9.30974851 C3,8.02366641 4.0426084,6.98117148 5.32870161,6.98117148 L5.32870161,6.98117148 L9.84146883,6.98043098 L8.04236282,5.2925934 C7.7412935,5.01016019 7.72618595,4.53713792 8.00861916,4.2360686 C8.2838105,3.94271901 8.7399424,3.92085448 9.04165174,4.18118598 L9.06514396,4.20232495 L11.7316033,6.70379027 L14.3981231,4.20231494 C14.699198,3.91988762 15.1722199,3.93500442 15.4546472,4.23607927 Z M18.2615726,8.47608505 L5.32870161,8.47608505 C4.86818994,8.47608505 4.49491357,8.84932079 4.49491357,9.30974851 L4.49491357,9.30974851 L4.49491357,17.671423 C4.49491357,18.1317782 4.86824208,18.5050864 5.32870161,18.5050864 L5.32870161,18.5050864 L18.2615726,18.5050864 C18.7219902,18.5050864 19.095236,18.1318202 19.095236,17.671423 L19.095236,17.671423 L19.095236,9.30974851 C19.095236,8.84927882 18.7220423,8.47608505 18.2615726,8.47608505 L18.2615726,8.47608505 Z" id="Combined-Shape" fill="#FFFFFF" fill-rule="nonzero" opacity="0.4"></path>
                </g>
                <g id="Movies-/-Filled" transform="translate(68.000000, 0.000000)">
                    <rect id="Rectangle" x="0" y="0" width="24" height="24"></rect>
                    <path d="M20.8429619,4.79651791 C20.8804823,5.26324806 20.5405694,5.67323122 20.0789045,5.72608455 L20.0492736,5.72897026 L5.97185915,6.86065051 C5.8427189,6.87101664 5.74178194,6.97423342 5.73246173,7.10166822 L5.73175875,7.12095649 L5.73120056,8.44582537 L5.85770461,8.43368641 L5.85770461,8.43368641 L5.98639423,8.42958446 L18.8594262,8.42958446 C19.9042233,8.42958446 20.7606488,9.2362577 20.839844,10.2607455 L20.8458204,10.4159787 L20.8458204,18.0136057 C20.8458204,19.0584029 20.0391472,19.9148284 19.0146593,19.9940235 L18.8594262,20 L5.98639423,20 C4.9415971,20 4.08517162,19.1933267 4.00597644,18.1688389 L4,18.0136057 L4,7.12095649 C4,6.09586987 4.77699265,5.24039201 5.79245312,5.13818671 L5.83319747,5.13450162 L19.9105095,4.00282961 C20.3871701,3.96451098 20.8046432,4.31985733 20.8429619,4.79651791 Z" id="Combined-Shape" fill="#FFFFFF" fill-rule="nonzero"></path>
                </g>
                <g id="Movies-/-Outline" transform="translate(68.000000, 34.000000)">
                    <rect id="Rectangle" x="0" y="0" width="24" height="24"></rect>
                    <path d="M4,6.96322738 C4,6.04009894 4.69871991,5.26947173 5.61269772,5.17561876 L5.65144328,5.17205737 L20.0410703,4.00238362 C20.4338332,3.97045754 20.7781116,4.26297358 20.8100378,4.65573649 C20.8412383,5.03957296 20.5625764,5.37710378 20.1833062,5.42204623 L20.1566849,5.42470392 L5.76698582,6.59438352 C5.58207352,6.60939543 5.43807531,6.75870899 5.42766243,6.94194047 L5.42683606,8.54587992 C5.54435301,8.521618 5.66607846,8.50887108 5.7907805,8.50887108 L5.7907805,8.50887108 L19.0216742,8.50887108 C20.0106791,8.50887108 20.8124214,9.31065003 20.8124214,10.2996516 L20.8124214,10.2996516 L20.8124214,18.2093384 C20.8124214,19.1983416 20.0106775,20 19.0216742,20 L19.0216742,20 L5.7907805,20 C4.80177895,20 4,19.1983433 4,18.2093384 L4,18.2093384 L4,6.96322738 Z M19.0216742,9.93588257 L5.7907805,9.93588257 C5.58989396,9.93588257 5.42701148,10.098765 5.42701148,10.2996516 L5.42701148,10.2996516 L5.42701148,18.2093384 C5.42701148,18.4101779 5.58984692,18.5729885 5.7907805,18.5729885 L5.7907805,18.5729885 L19.0216742,18.5729885 C19.2225607,18.5729885 19.3853243,18.4102249 19.3853243,18.2093384 L19.3853243,18.2093384 L19.3853243,10.2996516 C19.3853243,10.098718 19.2225137,9.93588257 19.0216742,9.93588257 L19.0216742,9.93588257 Z" id="Combined-Shape" fill="#FFFFFF" fill-rule="nonzero" opacity="0.4"></path>
                </g>
                <g id="Sports-/-Filled" transform="translate(102.000000, 0.000000)">
                    <rect id="Rectangle" x="0" y="0" width="24" height="24"></rect>
                    <path d="M10.3231715,4.26597081 C9.37852096,5.68179527 8.87101435,7.34414485 8.87101435,9.08453301 C8.87101435,11.4102105 9.77664562,13.5965699 11.4210847,15.2408811 C13.0653959,16.8854481 15.2518832,17.7910794 17.5774328,17.7910794 C18.1663042,17.7910794 18.7459645,17.7324865 19.310273,17.6191386 C19.0741103,17.9306533 18.816583,18.2289909 18.5352603,18.5100577 C16.8754694,20.1701045 14.6951228,21 12.5146482,21 C10.3341737,21 8.15382705,20.1701045 6.49390817,18.5100577 C4.88567387,16.9019514 4,14.7636943 4,12.4894456 C4,10.2150689 4.88567387,8.07681194 6.49390817,6.46870555 C7.59246103,5.37015269 8.91950062,4.6374856 10.3231715,4.26597081 Z M13.0829225,4 C15.0700918,4.13177006 17.0197768,4.95322201 18.5352603,6.46883349 C20.1436226,8.07681194 21.0291685,10.2150689 21.0291685,12.4894456 C21.0291685,13.4122197 20.8810232,14.3118382 20.6002122,15.1634822 C19.6725766,15.6258288 18.6442585,15.872098 17.5774328,15.872098 C15.7643792,15.872098 14.0600678,15.1660408 12.7780604,13.8840333 C11.4960529,12.6020258 10.7899957,10.8975866 10.7899957,9.08453301 C10.7899957,7.27147942 11.4960529,5.56716811 12.7780604,4.28516063 C12.8770798,4.18614119 12.9792976,4.09198317 13.0829225,4 Z" id="Combined-Shape" fill="#FFFFFF" fill-rule="nonzero"></path>
                </g>
                <g id="Sports-/-Outline" transform="translate(102.000000, 34.000000)">
                    <rect id="Rectangle" x="0" y="0" width="24" height="24"></rect>
                    <path d="M6.48956345,6.4895434 C9.80909692,3.17015029 15.1910391,3.17015029 18.5104437,6.48955485 C21.8298483,9.80909977 21.8298483,15.191042 18.5104437,18.5104466 C15.1910391,21.8298511 9.80909692,21.8298511 6.48955199,18.5104466 C3.17014743,15.191042 3.17014743,9.80909977 6.48956345,6.4895434 Z M9.57144904,6.17691518 L9.55203091,6.18482908 C8.83572946,6.51912828 8.16456626,6.98192659 7.57324395,7.5732239 C4.85232433,10.2942586 4.85232433,14.7058579 7.57322103,17.4267546 C10.2942557,20.1476742 14.7058551,20.1476742 17.4267632,17.426766 L17.2518323,17.595629 C15.1392686,17.5215947 13.0951308,16.6627421 11.5438443,15.1114556 C9.15474015,12.7224676 8.45795574,9.2161442 9.57144904,6.17691518 Z M17.3446321,7.49242438 C15.7448306,5.94367333 13.5860777,5.31282609 11.5309043,5.59988042 C9.95652382,8.29924012 10.3714495,11.7718095 12.6275117,14.0277619 C14.1968266,15.5970769 16.3792841,16.3016089 18.5262102,16.0000175 C20.0775635,13.3331293 19.7109129,9.85748171 17.4267517,7.5732239 L17.4267517,7.5732239 L17.3446321,7.49242438 Z" id="Combined-Shape" fill="#FFFFFF" fill-rule="nonzero" opacity="0.4"></path>
                </g>
                <g id="News-/-Filled" transform="translate(136.000000, 0.000000)">
                    <rect id="Rectangle" x="0" y="0" width="24" height="24"></rect>
                    <path d="M12.5730805,9.20368069 L8.31207843,9.20368069 C7.88957949,9.20368069 7.54710819,8.86120938 7.54710819,8.43871043 C7.54710819,8.01621149 7.88957949,7.67374019 8.31207843,7.67374019 L12.5730805,7.67374019 C12.9955793,7.67374019 13.3380506,8.01621149 13.3380506,8.43871043 C13.3380506,8.86120938 12.9955793,9.20368069 12.5730805,9.20368069 M12.5730805,12.3075769 L8.31207843,12.3075769 C7.88957949,12.3075769 7.54710819,11.9651056 7.54710819,11.5426066 C7.54710819,11.1201077 7.88957949,10.7776363 8.31207843,10.7776363 L12.5730805,10.7776363 C12.9955793,10.7776363 13.3380506,11.1201077 13.3380506,11.5426066 C13.3380506,11.9651056 12.9955793,12.3075769 12.5730805,12.3075769 M12.5730805,15.411473 L8.31207843,15.411473 C7.88957949,15.411473 7.54710819,15.0690018 7.54710819,14.6465029 C7.54710819,14.2240039 7.88957949,13.8815326 8.31207843,13.8815326 L12.5730805,13.8815326 C12.9955793,13.8815326 13.3380506,14.2240039 13.3380506,14.6465029 C13.3380506,15.0690018 12.9955793,15.411473 12.5730805,15.411473 M19.2938736,8.96065552 L17.3734453,8.96065552 L17.3734453,14.9809713 C17.3734453,15.226821 17.1937361,15.4464263 16.9489456,15.4697285 C16.6681426,15.496679 16.4319434,15.2764853 16.4319434,15.0013313 L16.4319434,4.9649217 C16.4319434,4.43203166 15.9999118,4 15.4670217,4 L4.95856656,4 C4.42920715,4 4,4.42920715 4,4.95868425 L4,15.2674233 C4,17.5217318 5.82733739,19.3490691 8.08141049,19.3490691 L15.9187072,19.3490691 C18.1727803,19.3490691 20,17.5217318 20,15.2676586 L20,9.6667819 C20,9.27676477 19.6840085,8.96065552 19.2938736,8.96065552" id="Fill-27" fill="#FFFFFF" fill-rule="nonzero"></path>
                </g>
                <g id="News-/-Outline" transform="translate(136.000000, 34.000000)">
                    <rect id="Rectangle" x="0" y="0" width="24" height="24"></rect>
                    <path d="M15.5780337,4 C16.179497,4 16.6672257,4.48772867 16.6672257,5.08919193 L16.6672257,5.08919193 L16.6672846,8.9606661 L18.9108081,8.96061903 C19.5018789,8.96061903 19.9828573,9.43142759 19.9995518,10.0183759 L19.9995518,10.0183759 L20,15.2674581 C20,17.5216128 18.1727446,19.3489562 15.9186195,19.3489562 L15.9186195,19.3489562 L8.08138047,19.3489562 C5.82733625,19.3489562 4,17.521576 4,15.2674581 L4,15.2674581 L4,5.08919193 C4,4.48767694 4.48778041,4 5.08930962,4 L5.08930962,4 L15.5780337,4 Z M15.2550422,5.41228945 L5.41224238,5.41228945 L5.41224238,15.2674581 C5.41224238,16.7268821 6.58352207,17.9127842 8.03724279,17.9363562 L8.03724279,17.9363562 L15.9186195,17.9367139 C17.3927695,17.9367139 18.5878165,16.7416681 18.5878165,15.2674581 L18.5878165,15.2674581 L18.5878165,10.3729085 L16.6662857,10.3725714 L16.6672257,14.7783045 C16.6672257,15.1682843 16.3510845,15.4844256 15.9611045,15.4844256 C15.5799877,15.4844256 15.2693915,15.1824912 15.2554704,14.8047767 L15.2550422,5.41228945 Z M12.5219177,14.0721832 C12.9118977,14.0721832 13.2280389,14.3883245 13.2280389,14.7783045 C13.2280389,15.1594213 12.9261045,15.4700174 12.5483899,15.4839385 L8.26094709,15.4844256 C7.87096712,15.4844256 7.5548259,15.1682843 7.5548259,14.7783045 C7.5548259,14.3971877 7.85676037,14.0865914 8.23447481,14.0726703 L12.5219177,14.0721832 Z M12.5219177,10.9683098 C12.9118977,10.9683098 13.2280389,11.2844511 13.2280389,11.6744311 C13.2280389,12.0555479 12.9261045,12.366144 12.5483899,12.3800653 L8.26094709,12.3805522 C7.87096712,12.3805522 7.5548259,12.064411 7.5548259,11.6744311 C7.5548259,11.2933143 7.85676037,10.9827181 8.23447481,10.9687969 L12.5219177,10.9683098 Z M12.5219177,7.8644365 C12.9118977,7.8644365 13.2280389,8.18057773 13.2280389,8.57055769 C13.2280389,8.95167447 12.9261045,9.26227069 12.5483899,9.27619183 L12.5219177,9.27667888 L8.26094709,9.27667888 C7.87096712,9.27667888 7.5548259,8.96053766 7.5548259,8.57055769 C7.5548259,8.1894409 7.85676037,7.8788447 8.23447481,7.86492354 L12.5219177,7.8644365 Z" id="Combined-Shape" fill="#FFFFFF" fill-rule="nonzero" opacity="0.4"></path>
                </g>
                <g id="Premium-/-Filled" transform="translate(170.000000, 0.000000)">
                    <rect id="Rectangle" x="0" y="0" width="24" height="24"></rect>
                    <path d="M12,4 C16.4182779,4 20,7.581722 20,12 C20,16.4182779 16.4182779,20 12,20 C7.581722,20 4,16.4182779 4,12 C4,7.581722 7.581722,4 12,4 Z M12.7734375,8.33333334 L11.1428571,8.33333334 C10.5116746,8.33333334 10,8.84500791 10,9.47619048 L10,16.1103189 C10.8090109,16.1103189 11.4648438,15.4544861 11.4648438,14.6454751 L11.4648438,12.9378255 L12.7490234,12.9378255 C13.5921224,12.9378255 14.2521159,12.7368165 14.7290039,12.3347982 C15.2058919,11.93278 15.4443359,11.3834635 15.4443359,10.6868489 C15.4443359,10.2278646 15.3352865,9.81852217 15.1171875,9.45882161 C14.8990886,9.0991211 14.5874024,8.82161458 14.1821289,8.62630208 C13.7768554,8.43098959 13.3072917,8.33333334 12.7734375,8.33333334 Z M12.8076171,9.51985677 C13.1689453,9.52636719 13.4521485,9.63704427 13.6572265,9.851888 C13.8623047,10.0667318 13.9648438,10.3483073 13.9648438,10.6966146 C13.9648438,11.0351562 13.8631185,11.2955729 13.659668,11.4778646 C13.4562175,11.6601562 13.1608073,11.7513021 12.7734375,11.7513021 L11.4648438,11.7513021 L11.4648438,10.0912854 C11.4648438,9.77569406 11.720681,9.51985677 12.0362723,9.51985677 L12.8076171,9.51985677 Z" id="Combined-Shape" fill="#FFFFFF" fill-rule="nonzero"></path>
                </g>
                <g id="Premium-/-Outline" transform="translate(170.000000, 34.000000)">
                    <rect id="Rectangle" x="0" y="0" width="24" height="24"></rect>
                    <g id="Group" transform="translate(4.000000, 4.000000)" fill="#FFFFFF" fill-rule="nonzero" opacity="0.4">
                        <path d="M8,0 C12.4182779,0 16,3.581722 16,8 C16,12.4182779 12.4182779,16 8,16 C3.581722,16 0,12.4182779 0,8 C0,3.581722 3.581722,0 8,0 Z M8,1.33333334 C4.31810167,1.33333334 1.33333334,4.31810167 1.33333334,8 C1.33333334,11.6818983 4.31810167,14.6666666 8,14.6666666 C11.6818983,14.6666666 14.6666666,11.6818983 14.6666666,8 C14.6666666,4.31810167 11.6818983,1.33333334 8,1.33333334 Z M8.7734375,4.33333334 C9.30729167,4.33333334 9.77685547,4.43098959 10.1821289,4.62630208 C10.5874023,4.82161458 10.8990885,5.0991211 11.1171875,5.45882161 C11.3352865,5.81852214 11.4443359,6.22786458 11.4443359,6.68684896 C11.4443359,7.38346354 11.2058919,7.93277994 10.7290039,8.33479817 C10.2887996,8.70589193 9.69257639,8.90571163 8.94033434,8.93425731 L8.74902344,8.93782552 L7.46484375,8.93782552 L7.46484375,10.6454751 C7.46484375,11.4193116 6.86480005,12.0530003 6.10461315,12.1066409 L6,12.1103189 L6,5 C6,4.65810944 6.25736013,4.37632856 6.58891925,4.33781849 L6.66666666,4.33333334 L8.7734375,4.33333334 Z M8.80761719,5.51985677 L7.79817709,5.51985677 C7.63453715,5.51985677 7.49843817,5.63777354 7.47021419,5.79327302 L7.46484375,5.8531901 L7.46484375,7.75130208 L8.7734375,7.75130208 C9.16080729,7.75130208 9.45621745,7.66015625 9.65966797,7.47786458 C9.86311849,7.29557291 9.96484375,7.03515625 9.96484375,6.69661458 C9.96484375,6.34830729 9.86230469,6.06673177 9.65722656,5.85188802 C9.4777832,5.66389974 9.23852539,5.55566406 8.93945312,5.52718099 L8.80761719,5.51985677 Z" id="Shape"></path>
                    </g>
                </g>
                <g id="Channels-/-Filled" transform="translate(204.000000, 0.000000)">
                    <polygon id="Path" points="0 0 24 0 24 24 0 24"></polygon>
                    <path d="M15.63046,7 C16.520983,7 17.2456271,7.72454736 17.2456271,8.61507031 L17.2456271,15.4929021 C17.2456271,16.383425 16.520983,17.1079725 15.63046,17.1079725 L8.36951093,17.1079725 C7.47898797,17.1079725 6.75444062,16.383425 6.75444062,15.4929021 L6.75444062,8.61507031 C6.75444062,7.72454736 7.47898797,7 8.36951093,7 L15.63046,7 Z M19.4196657,8.9289828 C19.740107,8.9289828 20,9.18877912 20,9.50931703 L20,14.5986553 C20,14.9190966 19.740107,15.1789896 19.4196657,15.1789896 C19.0992245,15.1789896 18.8393314,14.9190966 18.8393314,14.5986553 L18.8393314,9.50931703 C18.8393314,9.18877912 19.0992245,8.9289828 19.4196657,8.9289828 Z M4.58033429,8.9289828 C4.90077553,8.9289828 5.16066857,9.18877912 5.16066857,9.50931703 L5.16066857,14.5986553 C5.16066857,14.9190966 4.90077553,15.1789896 4.58033429,15.1789896 C4.25989304,15.1789896 4,14.9190966 4,14.5986553 L4,9.50931703 C4,9.18877912 4.25989304,8.9289828 4.58033429,8.9289828 Z" id="Combined-Shape" fill="#FFFFFF" fill-rule="nonzero"></path>
                </g>
                <g id="Channels-/-Outline" transform="translate(204.000000, 34.000000)">
                    <polygon id="Path" points="0 0 24 0 24 24 0 24"></polygon>
                    <path d="M15.63046,7 C16.520983,7 17.2456271,7.72454736 17.2456271,8.61507031 L17.2456271,15.4929021 C17.2456271,16.383425 16.520983,17.1079725 15.63046,17.1079725 L8.36951093,17.1079725 C7.47898797,17.1079725 6.75444062,16.383425 6.75444062,15.4929021 L6.75444062,8.61507031 C6.75444062,7.72454736 7.47898797,7 8.36951093,7 L15.63046,7 Z M15.63046,8.16066857 L8.36951093,8.16066857 C8.11890325,8.16066857 7.91510919,8.36446263 7.91510919,8.61507031 L7.91510919,15.4929021 C7.91510919,15.743413 8.11890325,15.9473039 8.36951093,15.9473039 L15.63046,15.9473039 C15.8810678,15.9473039 16.0849585,15.743413 16.0849585,15.4929021 L16.0849585,8.61507031 C16.0849585,8.36446263 15.8810678,8.16066857 15.63046,8.16066857 Z M19.4196657,8.9289828 C19.740107,8.9289828 20,9.18877912 20,9.50931703 L20,14.5986553 C20,14.9190966 19.740107,15.1789896 19.4196657,15.1789896 C19.0992245,15.1789896 18.8393314,14.9190966 18.8393314,14.5986553 L18.8393314,9.50931703 C18.8393314,9.18877912 19.0992245,8.9289828 19.4196657,8.9289828 Z M4.58033429,8.9289828 C4.90077553,8.9289828 5.16066857,9.18877912 5.16066857,9.50931703 L5.16066857,14.5986553 C5.16066857,14.9190966 4.90077553,15.1789896 4.58033429,15.1789896 C4.25989304,15.1789896 4,14.9190966 4,14.5986553 L4,9.50931703 C4,9.18877912 4.25989304,8.9289828 4.58033429,8.9289828 Z" id="Combined-Shape" fill="#FFFFFF" fill-rule="nonzero" opacity="0.4"></path>
                </g>
                <g id="Languages-/-Filled" transform="translate(238.000000, 0.000000)">
                    <polygon id="Path" points="0 0 24 0 24 24 0 24"></polygon>
                    <path d="M13.724664,13.1821437 L14.5586757,11.1717231 L14.8206269,11.1717231 L15.6545473,13.1821437 L13.724664,13.1821437 Z M18.9054965,16.8657865 C18.9054965,17.4353843 18.4420654,17.8988154 17.8723763,17.8988154 L12.5472518,17.8988154 L12.5472518,16.5570453 L12.5472518,15.9340904 C12.5889341,15.8883949 12.6240495,15.8353114 12.6491318,15.7749313 L13.2706274,14.2766472 L16.1085839,14.2766472 L16.7300794,15.7749313 C16.8174574,15.985532 17.0211262,16.1126769 17.2358313,16.1126769 C17.3056971,16.1126769 17.3767487,16.0990867 17.4452463,16.0707209 C17.7244359,15.9548859 17.8568709,15.6347437 17.7410359,15.3555541 L16.9792615,13.5190683 C16.978623,13.5175177 16.9779846,13.5159672 16.9773461,13.5145079 L15.6914869,10.4147826 C15.6067539,10.2104753 15.4072807,10.0772195 15.1860086,10.0772195 L14.1932026,10.0772195 C13.9719305,10.0772195 13.7724573,10.2104753 13.6877245,10.4147826 L12.5472518,13.1640843 L12.5472518,11.1688955 C11.4345065,10.9264631 10.6010421,11.2543581 10.1432659,11.5257038 C10.2954931,11.7991472 10.3784018,12.1060642 10.3784018,12.4205515 C10.3784018,13.5126837 9.50991323,14.3362064 8.35813067,14.3362064 C7.19704485,14.3362064 6.32253651,13.6020681 6.01881178,12.3723022 C5.94639213,12.0788841 6.12552587,11.7822736 6.41894403,11.7097627 C6.71199736,11.6374343 7.00897265,11.8163856 7.08148351,12.109895 C7.26691065,12.8609981 7.69641208,13.2417029 8.35813067,13.2417029 C8.91185826,13.2417029 9.28389825,12.9117101 9.28389825,12.4205515 C9.28389825,12.198641 9.18493689,11.9904117 9.00516469,11.8341713 C8.83113863,11.6828562 8.60129288,11.5994003 8.35813067,11.5994003 C8.05595649,11.5994003 7.81087891,11.3544139 7.81087891,11.0521486 C7.81087891,10.7499744 8.05595649,10.5048968 8.35813067,10.5048968 C8.86853416,10.5048968 9.28389825,10.1365051 9.28389825,9.68374549 C9.28389825,9.23098585 8.86853416,8.86259421 8.35813067,8.86259421 C8.10329377,8.86259421 7.86569529,8.95298195 7.68911539,9.11706627 C7.64825392,9.15500906 7.61131443,9.19660019 7.57930021,9.24056275 C7.40135217,9.48491067 7.05913739,9.53881497 6.81478947,9.36104936 C6.57044157,9.18319253 6.51644606,8.84097776 6.69421167,8.59662984 C6.76763462,8.49566189 6.85172897,8.40107854 6.94412331,8.31525122 C7.32382483,7.96236504 7.82601954,7.76809066 8.35813067,7.76809066 C9.47206166,7.76809066 10.3784018,8.62736715 10.3784018,9.68374549 C10.3784018,9.88212423 10.3462963,10.0736624 10.2870107,10.2538906 C10.8720229,10.037635 11.6366248,9.89981874 12.5472518,10.0533229 L12.5472518,7.98352544 L17.8723763,7.98352544 C18.4420654,7.98352544 18.9054965,8.44695648 18.9054965,9.01655437 L18.9054965,16.8657865 Z M17.8723763,6.8890219 L12.5472518,6.8890219 L12.5472518,5.54725177 C12.5472518,5.24507759 12.3021742,5 12,5 L6.12762367,5 C4.95440709,5 4,5.95440709 4,7.12753247 L4,14.9767646 C4,16.1498899 4.95440709,17.104297 6.12762367,17.104297 L11.4527482,17.104297 L11.4527482,18.4460672 C11.4527482,18.7482414 11.6977346,18.993319 12,18.993319 L17.8723763,18.993319 C19.0455017,18.993319 20,18.0389119 20,16.8657865 L20,9.01655437 C20,7.84342898 19.0455017,6.8890219 17.8723763,6.8890219 L17.8723763,6.8890219 Z" id="Fill-1" fill="#FFFFFF" fill-rule="nonzero"></path>
                </g>
                <g id="Languages-/-Outline" transform="translate(238.000000, 34.000000)">
                    <polygon id="Path" points="0 0 24 0 24 24 0 24"></polygon>
                    <path d="M13.7247194,13.1822815 L14.5587359,11.1718495 L14.8205973,11.1718495 L15.6546137,13.1822815 L13.7247194,13.1822815 Z M18.9054902,16.8658542 C18.9054902,17.4355465 18.4420566,17.8989801 17.8724554,17.8989801 L12.5473005,17.8989801 L12.5473005,16.5572024 L12.5473005,15.9342439 C12.5889831,15.8885481 12.6240986,15.8354643 12.6491811,15.7750839 L13.2706802,14.2767913 L16.1086529,14.2767913 L16.730152,15.7750839 C16.8175304,15.9856858 17.0212005,16.1128314 17.2359067,16.1128314 C17.3057729,16.1128314 17.3768249,16.0992413 17.445323,16.0708752 C17.7245142,15.9550395 17.8569498,15.6348954 17.7411143,15.3557042 L16.9794266,13.5195729 C16.9786969,13.5178399 16.9779673,13.5160158 16.9772376,13.5142827 L15.6915535,10.4149047 C15.6068201,10.2105962 15.4073457,10.0773397 15.1860723,10.0773397 L14.1932608,10.0773397 C13.9719874,10.0773397 13.772513,10.2105962 13.6877797,10.4149047 L12.5473005,13.1642221 L12.5473005,7.98354245 L17.8724554,7.98354245 C18.4420566,7.98354245 18.9054902,8.44697614 18.9054902,9.01666847 L18.9054902,16.8658542 Z M6.12763581,16.0099475 C5.55794346,16.0099475 5.09450978,15.5465138 5.09450978,14.9769127 L5.09450978,7.12763581 C5.09450978,6.55794346 5.55794346,6.09450978 6.12763581,6.09450978 L11.4527907,6.09450978 L11.4527907,7.43628755 L11.4527907,10.0790727 C10.875528,10.0935749 10.322527,10.2363173 9.86529554,10.4030475 C9.96051783,10.1808621 10.0136016,9.93824571 10.0136016,9.68386343 C10.0136016,8.62747904 9.10725626,7.76810645 7.99331893,7.76810645 C7.46129597,7.76810645 6.9590984,7.96247313 6.57930351,8.31527013 C6.48690864,8.40109793 6.40272259,8.49586424 6.32929923,8.59692398 C6.15153259,8.84136449 6.20561962,9.18358121 6.45015135,9.36125663 C6.69450066,9.53920568 7.03671738,9.48502745 7.21457522,9.24049573 C7.24658963,9.19653291 7.28343813,9.15503275 7.32420862,9.11708975 C7.50088074,8.95300449 7.73857178,8.86261622 7.99331893,8.86261622 C8.50372533,8.86261622 8.91909178,9.23100997 8.91909178,9.68386343 C8.91909178,10.1365344 8.50372533,10.5049281 7.99331893,10.5049281 C7.69114302,10.5049281 7.44606405,10.7500071 7.44606405,11.0521831 C7.44606405,11.3544502 7.69114302,11.5994379 7.99331893,11.5994379 C8.23648251,11.5994379 8.46632958,11.6828943 8.64044784,11.8343015 C8.82012986,11.9904515 8.91909178,12.1986821 8.91909178,12.4205938 C8.91909178,12.9118464 8.54704967,13.241841 7.99331893,13.241841 C7.33159656,13.241841 6.90209267,12.8610429 6.71666448,12.1099355 C6.64415321,11.8164245 6.34717622,11.6374721 6.05412122,11.709801 C5.76070139,11.7823122 5.58156663,12.0789245 5.6539867,12.3723442 C5.95771315,13.6022085 6.83222647,14.3363509 7.99331893,14.3363509 C9.14510806,14.3363509 10.0136016,13.5128234 10.0136016,12.4205938 C10.0136016,12.1360214 9.94555954,11.857651 9.82005577,11.6046368 C10.2323211,11.4144657 10.8374026,11.1930099 11.4527907,11.1730352 L11.4527907,16.0099475 L6.12763581,16.0099475 Z M17.8724554,6.88903267 L12.5473005,6.88903267 L12.5473005,5.54725489 C12.5473005,5.24507898 12.3022215,5 12.0000456,5 L6.12763581,5 C4.95441253,5 4,5.95450374 4,7.12763581 L4,14.9769127 C4,16.1500448 4.95441253,17.1044573 6.12763581,17.1044573 L11.4527907,17.1044573 L11.4527907,18.4462351 C11.4527907,18.748411 11.6977785,18.9934899 12.0000456,18.9934899 L17.8724554,18.9934899 C19.0455874,18.9934899 20,18.0389862 20,16.8658542 L20,9.01666847 C20,7.84353641 19.0455874,6.88903267 17.8724554,6.88903267 L17.8724554,6.88903267 Z" id="Fill-1" fill="#FFFFFF" fill-rule="nonzero" opacity="0.4"></path>
                </g>
                <g id="Genres-/-Filled" transform="translate(272.000000, 0.000000)">
                    <rect id="Rectangle" x="0" y="0" width="24" height="24"></rect>
                    <g transform="translate(4.000000, 5.000000)" fill-rule="nonzero">
                        <path d="M12.2184809,4.4426484 C13.0789743,4.59142754 13.9614702,4.62732816 14.8435109,4.54429257 C15.1693623,4.513664 15.489728,4.64468114 15.700928,4.894464 C15.8819566,5.10864195 15.9633018,5.38750656 15.9295336,5.66185145 L15.9029851,5.79832686 L14.5458194,10.8632869 C14.2790701,11.8586305 13.6189399,12.6879502 12.7181301,13.1708008 L12.506048,13.2759954 L11.8080823,13.595264 C11.205568,13.8709211 10.5680366,14.0030354 9.93781943,14.0030354 C8.98085271,14.0030354 8.04035898,13.6983469 7.26304507,13.1282542 C8.07241134,12.9501848 8.83890609,12.6037839 9.50742259,12.1088976 L9.75341593,11.9163938 L10.3964685,11.3849215 L10.4327346,11.3550144 L10.4346225,11.3531266 L10.6417054,11.1686159 C10.7871614,11.0317027 10.9235243,10.8871199 11.0503847,10.7357377 L11.076544,10.819072 C11.1412754,11.0653806 11.3635383,11.2282149 11.6066469,11.2282149 C11.6529097,11.2281234 11.699904,11.2223634 11.746624,11.2100206 C12.0396526,11.1328549 12.2145554,10.8327863 12.1374811,10.5398491 C12.0542263,10.2236378 11.9167526,9.92965577 11.7355751,9.6684744 C12.0120622,9.08556377 12.1758214,8.44908579 12.2118367,7.79029731 L12.2194114,7.51269558 L12.2184809,4.4426484 Z M9.53453714,3.41060513e-13 C9.92731429,3.41060513e-13 10.3051886,0.118491429 10.6272914,0.342491429 C11.0901486,0.664228571 11.3851182,1.17229349 11.4394835,1.72738469 L11.4485943,1.91396571 L11.4485943,7.15757714 C11.4485943,8.43433448 10.9277196,9.63909323 10.0091431,10.5100462 L9.80626286,10.6914743 L9.80452571,10.6932114 L9.77115429,10.7207314 L9.17942857,11.2097829 C8.21083429,12.0105143 6.98377143,12.4513829 5.72434286,12.4513829 C4.56162462,12.4513829 3.42671797,12.0756536 2.4971713,11.3881241 L2.26916571,11.2097829 L1.67744,10.7207314 C0.678097143,9.89453143 0.0782096429,8.70142072 0.00712738839,7.41584405 L0,7.15757714 L0,1.91396571 C0,1.28749714 0.307108571,0.699977143 0.821211429,0.342674286 C1.08970667,0.155855238 1.39693207,0.0424330159 1.71918392,0.00981502646 L1.91414857,3.41060513e-13 L2.08437429,0.00752857143 C2.25365143,0.0225714286 2.41981714,0.0601142857 2.58048,0.119771429 C3.58930286,0.494537143 4.64713143,0.684525714 5.72434286,0.684525714 C6.80155429,0.684525714 7.8592,0.494537143 8.86811429,0.119862857 C9.08196571,0.04032 9.30633143,3.41060513e-13 9.53453714,3.41060513e-13 Z" id="Combined-Shape" fill="#FFFFFF"></path>
                        <path d="M5.72432457,8.83776914 C4.62928457,8.83776914 3.60464457,8.31479771 3.05040457,7.47301486 C2.88373029,7.220032 2.95376457,6.87982629 3.20683886,6.71324343 C3.45991314,6.54638629 3.80011886,6.61669486 3.96661029,6.86967771 C4.32053029,7.406912 4.99399314,7.74062629 5.72432457,7.74062629 C6.454656,7.74062629 7.12811886,7.406912 7.48203886,6.86967771 C7.64853029,6.616512 7.988736,6.54638629 8.24181029,6.71324343 C8.49488457,6.87982629 8.56491886,7.220032 8.39824457,7.47301486 C7.84400457,8.31479771 6.81936457,8.83776914 5.72432457,8.83776914" id="Fill-10" fill="#000000"></path>
                    </g>
                </g>
                <g id="Genres-/-Outline" transform="translate(306.000000, 0.000000)">
                    <rect id="Rectangle" x="0" y="0" width="24" height="24"></rect>
                    <path d="M14.4992437,11.4093774 C13.7057488,11.9484242 12.2771523,12.8921637 10.6902644,13.814105 C10.3553464,14.0087608 9.93547651,13.7744812 9.91887322,13.3874105 C9.85358051,11.8660189 9.86142378,10.367546 9.9243737,8.82975492 C9.93995839,8.45042565 10.3442435,8.21533113 10.6794671,8.39358737 C12.1840517,9.19339765 13.650031,10.0525927 14.4742878,10.545293 C14.7964732,10.7379116 14.809817,11.1984238 14.4992437,11.4093774 M16.6452712,5.99534572 C13.9847797,3.3347624 9.65569963,3.3350377 6.99511631,5.99525396 L6.99502454,5.99534572 C4.33499182,8.65556198 4.33499182,12.984275 6.99502454,15.6447665 L11.0176048,19.6674386 C11.2319711,19.8818966 11.5171811,20 11.8204691,20 C12.123757,20 12.4088752,19.8818049 12.6233333,19.6673468 L16.6451795,15.6447665 C17.9342221,14.3559992 18.644127,12.6425369 18.644127,10.8199644 C18.644127,8.99748359 17.9342221,7.28402132 16.6452712,5.99534572" id="Fill-1" fill="#FFFFFF"></path>
                </g>
                <g id="Local-/-Filled" transform="translate(272.000000, 34.000000)">
                    <rect id="Rectangle" x="0" y="0" width="24" height="24"></rect>
                    <path d="M12.9738241,5.06882065 C13.6822253,4.80572528 14.4359643,5.3295974 14.4359643,6.08540148 L14.4359643,6.08540148 L14.4354776,8.14995265 C15.8346,8.60962058 17.3240192,8.78151554 18.8129433,8.64131368 C19.521148,8.57448631 20.0876333,9.19180388 19.9887545,9.87334685 L19.9622896,10.0017375 L18.4900155,15.4962835 C18.2001469,16.5777496 17.4741216,17.4858208 16.4917177,18.007682 L16.2773439,18.1135205 L15.5200411,18.4598408 C13.4623461,19.4010863 11.0397912,18.8052946 9.64994174,17.0468978 L9.49983483,16.8467549 L9.27113311,16.526157 C8.14745743,16.5383197 7.02044016,16.1646658 6.10165826,15.4051907 L6.10165826,15.4051907 L5.45988369,14.8745936 C4.53530378,14.110299 4,12.9732977 4,11.7737063 L4,11.7737063 L4,6.08540148 C4,5.32959895 4.75361515,4.80576092 5.46218972,5.06883902 C7.88511903,5.96894264 10.5508454,5.96894264 12.9738241,5.06882065 Z M14.4355836,9.39610691 L14.4359643,11.7737063 C14.4359643,12.2539615 14.3501661,12.7241849 14.1879424,13.1644751 C15.0227127,13.5306274 15.6442637,14.2597508 15.8774493,15.1452465 C15.9611453,15.4630723 15.7713456,15.78857 15.4535197,15.8722659 C15.1429172,15.9540597 14.8249876,15.7746481 14.7325786,15.4698061 L14.7265003,15.4483363 C14.5766205,14.8791853 14.1626361,14.4183159 13.6104901,14.2126434 C13.4273116,14.4553506 13.2146705,14.6773657 12.976115,14.8745652 L12.976115,14.8745652 L12.334264,15.4052255 C11.8103711,15.8382811 11.2187674,16.1458908 10.5986804,16.3280538 L10.4697474,16.1569602 C11.4559352,17.5436331 13.2525568,18.0717871 14.8217111,17.463321 L15.025008,17.3774871 L15.7823588,17.0311449 C16.4864323,16.7091583 17.0251197,16.1145051 17.2784652,15.3891514 L17.3403947,15.1881938 L18.773505,9.83943782 L18.6692351,9.84754628 C17.2324199,9.95189999 15.7991419,9.79550753 14.4355836,9.39610691 Z M13.2457764,6.2363423 L13.1445498,6.27207487 C10.5740785,7.16427274 7.77501477,7.15468032 5.20955607,6.24333131 L5.20955607,6.24333131 L5.19018791,6.2363423 L5.19018791,11.7737063 C5.19018791,12.6030614 5.55354905,13.3899306 6.1829861,13.9276651 L6.1829861,13.9276651 L6.21822795,13.9572816 L6.85999463,14.4878722 C8.22845602,15.6190572 10.2075083,15.6190572 11.5759275,14.4879071 L11.5759275,14.4879071 L12.2177706,13.9572532 C12.8688329,13.4190593 13.2457764,12.6184199 13.2457764,11.7737063 L13.2457764,11.7737063 L13.2457764,6.2363423 Z M11.60019,11.2720072 C11.8855312,11.4350983 11.9846343,11.7986244 11.8215432,12.0839656 C11.2915041,13.0113115 10.3057625,13.5964592 9.21799208,13.5964592 C8.13024933,13.5964592 7.14452544,13.0113424 6.61437231,12.0840188 C6.45125172,11.7986946 6.55031737,11.4351583 6.83564162,11.2720377 C7.11417244,11.1128009 7.46723534,11.2034139 7.6356343,11.4732444 L7.64762285,11.493307 C7.96804639,12.0537795 8.56187577,12.4062713 9.21799208,12.4062713 C9.87410913,12.4062713 10.467914,12.0537818 10.7882316,11.4933603 C10.9513227,11.2080192 11.3148489,11.108916 11.60019,11.2720072 Z" id="Combined-Shape" fill="#FFFFFF" fill-rule="nonzero" opacity="0.4"></path>
                </g>
                <g id="Local-/-Outline" transform="translate(306.000000, 34.000000)">
                    <rect id="Rectangle" x="0" y="0" width="24" height="24"></rect>
                    <path d="M7.18338687,5.81397324 C9.85621853,3.33646398 14.0467183,3.39663644 16.6452483,5.99534572 C17.934291,7.28402132 18.6441958,8.99748359 18.6441958,10.8199644 C18.6441958,12.6424451 17.934291,14.3559074 16.6452483,15.6447665 L16.6452483,15.6447665 L12.6233104,19.6673468 C12.4088523,19.8818049 12.1237341,20 11.8204461,20 C11.5171582,20 11.23204,19.8818966 11.0175819,19.6674386 L11.0175819,19.6674386 L6.99509337,15.6446748 C4.33496888,12.984275 4.33496888,8.65556198 6.99509337,5.99534572 L6.99509337,5.99534572 Z M15.9128784,6.75133606 C13.6561479,4.49460562 9.98426208,4.49460562 7.72744172,6.75133606 L7.72744172,6.75133606 L7.54953433,6.93725476 C5.47289899,9.20522879 5.53223143,12.7404006 7.72753165,14.9359633 L7.72753165,14.9359633 L11.6695705,18.8782719 C11.7239788,18.9325903 11.7873802,18.9406841 11.8204748,18.9406841 C11.8534795,18.9406841 11.9169708,18.9325004 11.9713792,18.878182 L11.9713792,18.878182 L15.9128784,14.9359633 C17.0062604,13.8427612 17.6084389,12.389385 17.6084389,10.8435598 C17.6084389,9.29782442 17.0062604,7.84453823 15.9128784,6.75133606 Z M10.1653473,8.27171229 C10.4415642,8.11313995 10.7742174,8.10790926 11.0554814,8.25739673 C12.4434482,8.99519861 13.8056287,9.79567694 14.4940603,10.2071575 C14.7656888,10.369584 14.933346,10.6549775 14.9424309,10.9708375 C14.9515158,11.2866057 14.8007436,11.5812676 14.5390258,11.7590191 C13.8780324,12.2081239 12.5497137,13.0888978 11.0801666,13.9426925 C10.9363686,14.0262916 10.7776127,14.0681371 10.6186733,14.0681371 C10.4673505,14.0681371 10.3158442,14.0302376 10.1768181,13.9540715 C9.89004808,13.7970592 9.71036946,13.5082703 9.6963292,13.1813984 C9.63961756,11.8596869 9.64126936,10.5041136 9.70128459,9.03676879 C9.71440718,8.71677934 9.88793745,8.43074347 10.1653473,8.27171229 Z M10.6748752,9.12893157 C10.6114086,10.5335632 10.6097173,11.8241687 10.6637485,13.0809491 L10.6637485,13.0809491 L10.6703355,13.0889603 C12.0714956,12.2735974 13.3402038,11.4322427 13.9716649,11.003287 C13.9733562,11.0021298 13.9739793,11.0014177 13.9739793,11.0014177 L13.8329679,10.9170172 C13.1365779,10.5013222 11.9154966,9.78841414 10.6748752,9.12893157 L10.6748752,9.12893157 Z" id="Combined-Shape" fill="#FFFFFF" fill-rule="nonzero" opacity="0.4"></path>
                </g>
            </g>
        </g>
    </g>
</svg>